<?xml version="1.0" standalone="no"?>
<!DOCTYPE svg PUBLIC "-//W3C//DTD SVG 20010904//EN"
 "http://www.w3.org/TR/2001/REC-SVG-20010904/DTD/svg10.dtd">
<svg version="1.0" xmlns="http://www.w3.org/2000/svg"
 width="512.000000pt" height="512.000000pt" viewBox="0 0 512.000000 512.000000"
 preserveAspectRatio="xMidYMid meet">

<g transform="translate(0.000000,512.000000) scale(0.100000,-0.100000)"
fill="#000000" stroke="none">
<path d="M1934 5110 c-111 -23 -225 -113 -277 -219 l-32 -66 -5 -225 -5 -225
-515 -5 -515 -5 -57 -27 c-148 -69 -237 -240 -208 -400 23 -123 95 -220 206
-274 l59 -29 1850 -5 c1018 -3 1907 -3 1976 0 110 5 132 9 181 33 66 32 151
119 179 181 83 190 7 402 -177 492 l-59 29 -515 5 -515 5 -5 225 -5 225 -32
66 c-40 82 -111 150 -201 192 l-67 32 -610 2 c-335 1 -629 -3 -651 -7z m1261
-169 c59 -27 101 -66 127 -119 21 -43 23 -62 26 -244 l4 -198 -792 0 -792 0 4
198 c4 213 9 237 64 301 15 19 51 44 79 57 l50 24 595 0 c554 0 598 -2 635
-19z m1292 -733 c32 -8 61 -25 94 -57 70 -68 86 -146 48 -231 -25 -56 -53 -86
-104 -113 l-40 -22 -1895 -3 c-1401 -2 -1909 0 -1949 8 -93 20 -171 116 -171
210 0 85 69 180 149 204 39 12 332 15 1934 15 1403 1 1900 -2 1934 -11z"/>
<path d="M798 3449 c-10 -5 -22 -19 -28 -29 -8 -14 26 -412 124 -1482 75 -805
140 -1494 147 -1531 21 -128 109 -263 214 -329 22 -14 67 -36 100 -49 l60 -24
1112 -3 c1210 -3 1181 -4 1292 53 27 13 77 50 110 81 70 64 125 164 141 254 5
30 71 720 146 1533 l136 1479 -19 26 c-40 54 -127 34 -138 -30 -3 -18 -66
-692 -140 -1498 -76 -823 -142 -1487 -150 -1516 -28 -99 -124 -189 -225 -214
-31 -7 -377 -10 -1150 -8 l-1105 3 -50 27 c-54 28 -123 96 -149 145 -8 17 -20
50 -26 74 -8 36 -280 2925 -280 2982 0 47 -77 83 -122 56z"/>
<path d="M1645 3214 c-5 -1 -26 -5 -46 -8 -50 -9 -121 -58 -153 -106 -55 -83
-57 -39 53 -1215 56 -594 106 -1101 112 -1127 33 -145 199 -227 337 -168 93
40 162 138 162 231 0 95 -202 2179 -215 2219 -20 61 -67 116 -124 144 -44 22
-104 37 -126 30z m68 -183 c11 -8 23 -23 28 -33 8 -15 209 -2107 209 -2178 0
-57 -72 -104 -128 -84 -59 21 -53 -25 -162 1152 -97 1039 -101 1094 -85 1118
20 31 72 55 100 47 11 -3 28 -13 38 -22z"/>
<path d="M3422 3209 c-24 -5 -59 -18 -77 -29 -45 -28 -102 -94 -115 -134 -5
-17 -46 -418 -90 -891 -44 -473 -89 -952 -100 -1065 -26 -269 -26 -313 4 -375
96 -204 393 -188 460 25 8 25 19 97 25 160 6 63 54 555 106 1093 70 718 92
989 86 1017 -31 140 -159 224 -299 199z m112 -178 c10 -9 22 -26 27 -38 5 -15
-29 -405 -96 -1095 -58 -590 -105 -1081 -105 -1091 0 -31 -54 -77 -90 -77 -49
0 -90 47 -90 102 0 95 199 2158 210 2178 25 46 102 58 144 21z"/>
<path d="M2455 3191 c-22 -10 -57 -36 -77 -57 -73 -76 -68 12 -68 -1244 0
-1239 -4 -1161 61 -1235 98 -111 279 -112 377 -1 70 80 65 -12 63 1241 -3
1249 2 1165 -69 1239 -52 54 -104 76 -182 76 -42 0 -79 -7 -105 -19z m170
-165 c14 -14 26 -41 30 -67 3 -24 5 -522 3 -1107 l-3 -1064 -33 -29 c-42 -38
-82 -38 -124 0 l-33 29 -3 1064 c-2 585 0 1083 3 1107 9 59 42 91 95 91 30 0
47 -6 65 -24z"/>
</g>
</svg>
