<?xml version="1.0" standalone="no"?>
<!DOCTYPE svg PUBLIC "-//W3C//DTD SVG 20010904//EN"
 "http://www.w3.org/TR/2001/REC-SVG-20010904/DTD/svg10.dtd">
<svg version="1.0" xmlns="http://www.w3.org/2000/svg"
 width="512.000000pt" height="512.000000pt" viewBox="0 0 512.000000 512.000000"
 preserveAspectRatio="xMidYMid meet">

<g transform="translate(0.000000,512.000000) scale(0.100000,-0.100000)"
fill="#000000" stroke="none">
<path d="M2224 4778 l-59 -181 -140 -39 c-77 -21 -141 -38 -142 -38 -1 0 -64
56 -140 125 -75 69 -141 125 -146 125 -4 0 -114 -61 -243 -136 -179 -104 -234
-140 -230 -153 3 -9 21 -92 42 -185 l37 -168 -105 -105 -105 -105 -184 41
c-101 22 -187 37 -190 33 -13 -13 -269 -461 -269 -469 0 -5 56 -71 125 -146
69 -76 125 -139 125 -140 0 -1 -17 -65 -38 -142 l-38 -140 -182 -59 -182 -60
0 -276 0 -276 182 -60 182 -59 38 -140 c21 -77 38 -141 38 -142 0 -1 -56 -64
-125 -140 -69 -75 -125 -141 -125 -146 0 -8 256 -456 269 -469 3 -4 89 11 190
33 l184 41 36 -36 37 -36 54 55 54 55 -68 69 -67 68 -58 -13 c-31 -8 -107 -24
-169 -38 l-112 -24 -66 117 c-37 64 -73 125 -81 137 -12 20 -6 29 102 147 63
69 115 134 115 144 0 10 -26 115 -58 233 l-57 214 -168 54 -167 53 0 159 0
159 167 53 168 54 57 214 c32 118 58 223 58 233 0 10 -52 75 -115 144 -108
118 -114 127 -102 147 8 12 44 73 81 137 l66 117 112 -24 c62 -14 138 -30 169
-38 l57 -13 170 171 169 171 -14 60 c-8 33 -25 108 -37 167 l-24 107 139 80
138 79 125 -114 c87 -79 132 -114 148 -113 13 0 117 26 232 57 l210 57 53 168
54 167 159 0 159 0 54 -167 53 -167 214 -58 c118 -32 223 -58 233 -58 10 0 75
52 145 115 116 106 127 114 146 101 12 -7 73 -43 137 -80 l117 -66 -23 -108
c-13 -59 -30 -134 -38 -167 l-14 -60 169 -171 170 -171 151 33 c84 19 160 35
169 38 13 3 33 -24 84 -113 37 -64 73 -125 81 -137 12 -20 6 -29 -102 -147
-63 -69 -115 -134 -115 -144 0 -10 26 -114 58 -232 l57 -214 168 -54 167 -54
0 -159 0 -159 -167 -54 -168 -54 -57 -214 c-32 -118 -58 -222 -58 -232 0 -10
52 -75 115 -144 108 -118 114 -127 102 -147 -8 -12 -44 -73 -81 -137 -51 -89
-71 -116 -84 -113 -9 3 -85 19 -169 38 l-152 33 -60 -61 -61 -62 55 -54 55
-54 29 28 30 28 168 -36 c92 -21 175 -39 184 -42 13 -4 49 51 153 230 75 129
136 239 136 243 0 5 -56 71 -125 146 -69 76 -125 139 -125 140 0 1 18 65 39
142 l38 140 49 17 c27 9 109 36 182 59 l132 42 0 277 0 277 -132 42 c-73 23
-155 50 -182 59 l-49 17 -39 143 -39 142 126 137 c69 75 125 140 125 145 0 9
-256 456 -269 470 -3 4 -89 -11 -190 -34 l-183 -41 -105 106 -106 105 41 183
c23 101 38 187 34 190 -25 23 -466 270 -475 266 -7 -3 -72 -60 -145 -126 -111
-102 -137 -121 -155 -115 -12 4 -76 21 -142 38 l-120 32 -59 182 -60 182 -276
0 -276 0 -60 -182z"/>
<path d="M2410 4233 c-353 -36 -665 -167 -930 -389 -437 -365 -659 -934 -585
-1497 39 -297 154 -578 329 -805 l56 -72 0 -575 0 -575 -560 0 -560 0 0 -80 0
-80 2400 0 2400 0 0 80 0 80 -560 0 -560 0 0 575 0 575 65 86 c347 461 431
1096 213 1628 -240 585 -756 976 -1383 1046 -85 9 -249 11 -325 3z m460 -186
c301 -64 567 -211 781 -433 215 -225 344 -476 406 -789 25 -128 24 -395 -1
-530 -25 -135 -76 -289 -136 -410 -87 -176 -79 -218 -80 468 l0 607 -320 0
-320 0 0 63 c0 57 3 66 29 91 27 26 33 27 62 17 81 -28 165 -5 234 64 102 101
102 229 0 330 -101 102 -229 102 -330 0 -70 -69 -92 -153 -64 -234 11 -32 10
-35 -40 -85 l-51 -52 0 -97 0 -97 -80 0 -80 0 0 250 c0 220 2 250 16 250 8 0
39 24 67 53 73 73 93 146 65 241 -16 55 -99 138 -154 154 -94 28 -169 8 -239
-63 -102 -102 -102 -229 2 -332 28 -29 59 -53 67 -53 14 0 16 -30 16 -250 l0
-250 -80 0 -80 0 0 138 0 137 -120 120 c-112 112 -120 122 -120 159 0 132
-111 246 -240 246 -84 0 -177 -56 -216 -132 -47 -90 -23 -210 56 -281 80 -72
179 -86 271 -38 l42 22 84 -83 83 -83 0 -102 0 -103 -80 0 -80 0 0 -160 0
-160 -120 0 -120 0 0 97 0 98 -91 91 c-91 91 -92 92 -80 125 28 81 6 165 -64
234 -99 100 -237 100 -333 2 -97 -99 -96 -233 3 -332 69 -70 153 -92 234 -64
32 11 34 10 102 -57 l69 -68 0 -63 0 -63 -280 0 -280 0 0 -447 c-1 -507 6
-482 -80 -308 -108 218 -155 422 -155 675 0 189 17 303 72 470 76 236 188 416
373 600 259 260 522 386 925 444 82 12 344 -4 455 -27z m-15 -312 c16 -15 25
-36 25 -55 0 -19 -9 -40 -25 -55 -15 -16 -36 -25 -55 -25 -19 0 -40 9 -55 25
-16 15 -25 36 -25 55 0 19 9 40 25 55 15 16 36 25 55 25 19 0 40 -9 55 -25z
m-720 -160 c50 -49 15 -135 -55 -135 -41 0 -80 39 -80 80 0 41 39 80 80 80 19
0 40 -9 55 -25z m1280 -160 c16 -15 25 -36 25 -55 0 -19 -9 -40 -25 -55 -15
-16 -36 -25 -55 -25 -19 0 -40 9 -55 25 -16 15 -25 36 -25 55 0 19 9 40 25 55
15 16 36 25 55 25 19 0 40 -9 55 -25z m-1760 -240 c50 -49 15 -135 -55 -135
-41 0 -80 39 -80 80 0 41 39 80 80 80 19 0 40 -9 55 -25z m2025 -1615 l0
-1240 -160 0 -160 0 0 200 0 200 -320 0 -320 0 0 -200 0 -200 -160 0 -160 0 0
1240 0 1240 640 0 640 0 0 -1240z m-1440 -160 l0 -1080 -80 0 -80 0 0 200 0
200 -240 0 -240 0 0 -200 0 -200 -80 0 -80 0 0 1080 0 1080 400 0 400 0 0
-1080z m-320 -960 l0 -120 -80 0 -80 0 0 120 0 120 80 0 80 0 0 -120z m1280 0
l0 -120 -160 0 -160 0 0 120 0 120 160 0 160 0 0 -120z"/>
<path d="M2560 2560 l0 -80 80 0 80 0 0 80 0 80 -80 0 -80 0 0 -80z"/>
<path d="M2960 2560 l0 -80 80 0 80 0 0 80 0 80 -80 0 -80 0 0 -80z"/>
<path d="M3360 2560 l0 -80 80 0 80 0 0 80 0 80 -80 0 -80 0 0 -80z"/>
<path d="M2560 2240 l0 -80 80 0 80 0 0 80 0 80 -80 0 -80 0 0 -80z"/>
<path d="M2960 2240 l0 -80 80 0 80 0 0 80 0 80 -80 0 -80 0 0 -80z"/>
<path d="M3360 2240 l0 -80 80 0 80 0 0 80 0 80 -80 0 -80 0 0 -80z"/>
<path d="M2560 1920 l0 -80 80 0 80 0 0 80 0 80 -80 0 -80 0 0 -80z"/>
<path d="M2960 1920 l0 -80 80 0 80 0 0 80 0 80 -80 0 -80 0 0 -80z"/>
<path d="M3360 1920 l0 -80 80 0 80 0 0 80 0 80 -80 0 -80 0 0 -80z"/>
<path d="M2560 1600 l0 -80 80 0 80 0 0 80 0 80 -80 0 -80 0 0 -80z"/>
<path d="M2960 1600 l0 -80 80 0 80 0 0 80 0 80 -80 0 -80 0 0 -80z"/>
<path d="M3360 1600 l0 -80 80 0 80 0 0 80 0 80 -80 0 -80 0 0 -80z"/>
<path d="M2560 1280 l0 -80 80 0 80 0 0 80 0 80 -80 0 -80 0 0 -80z"/>
<path d="M2960 1280 l0 -80 80 0 80 0 0 80 0 80 -80 0 -80 0 0 -80z"/>
<path d="M3360 1280 l0 -80 80 0 80 0 0 80 0 80 -80 0 -80 0 0 -80z"/>
<path d="M2560 960 l0 -80 480 0 480 0 0 80 0 80 -480 0 -480 0 0 -80z"/>
<path d="M1600 2240 l0 -80 80 0 80 0 0 80 0 80 -80 0 -80 0 0 -80z"/>
<path d="M1920 2240 l0 -80 80 0 80 0 0 80 0 80 -80 0 -80 0 0 -80z"/>
<path d="M1600 1840 l0 -80 80 0 80 0 0 80 0 80 -80 0 -80 0 0 -80z"/>
<path d="M1920 1840 l0 -80 80 0 80 0 0 80 0 80 -80 0 -80 0 0 -80z"/>
<path d="M1600 1440 l0 -80 80 0 80 0 0 80 0 80 -80 0 -80 0 0 -80z"/>
<path d="M1920 1440 l0 -80 80 0 80 0 0 80 0 80 -80 0 -80 0 0 -80z"/>
<path d="M1600 1040 l0 -80 80 0 80 0 0 80 0 80 -80 0 -80 0 0 -80z"/>
<path d="M1920 1040 l0 -80 80 0 80 0 0 80 0 80 -80 0 -80 0 0 -80z"/>
</g>
</svg>
