<?xml version="1.0" standalone="no"?>
<!DOCTYPE svg PUBLIC "-//W3C//DTD SVG 20010904//EN"
 "http://www.w3.org/TR/2001/REC-SVG-20010904/DTD/svg10.dtd">
<svg version="1.0" xmlns="http://www.w3.org/2000/svg"
 width="512.000000pt" height="512.000000pt" viewBox="0 0 512.000000 512.000000"
 preserveAspectRatio="xMidYMid meet">

<g transform="translate(0.000000,512.000000) scale(0.100000,-0.100000)"
fill="#000000" stroke="none">
<path d="M3075 5109 c-36 -10 -144 -72 -804 -459 -277 -162 -523 -312 -547
-333 -23 -21 -56 -63 -71 -95 l-28 -57 0 -795 0 -795 28 -57 c16 -32 48 -74
72 -95 24 -21 178 -117 343 -213 165 -96 299 -176 298 -178 -2 -1 -144 20
-316 48 -172 27 -345 50 -384 50 -125 0 -135 -4 -551 -229 -82 -45 -166 -86
-185 -93 -22 -7 -164 -13 -395 -17 -398 -7 -388 -5 -458 -75 -73 -72 -72 -66
-75 -505 -3 -450 -1 -462 73 -536 72 -73 82 -74 510 -83 l380 -9 890 -288
c674 -218 906 -289 955 -292 80 -6 176 16 240 55 79 49 1974 1492 2002 1525
46 53 71 132 65 204 -15 199 -228 320 -404 229 -26 -14 -208 -126 -403 -250
l-355 -226 -16 53 c-26 88 -80 154 -159 197 -14 8 -58 21 -99 30 l-74 16 214
125 c118 69 333 195 478 280 145 85 281 171 302 192 21 21 48 59 61 85 l23 47
3 792 c2 780 2 792 -18 847 -13 32 -39 73 -63 98 -50 51 -1289 782 -1364 804
-51 15 -122 17 -168 3z m758 -534 c345 -202 627 -370 627 -374 0 -3 -285 -182
-632 -396 -532 -327 -638 -390 -669 -390 -41 0 -9 -18 -809 474 -261 161 -480
298 -487 305 -9 8 66 57 320 206 1021 598 938 552 982 547 31 -3 192 -93 668
-372z m-1442 -911 c327 -202 613 -376 637 -387 l42 -21 0 -669 0 -669 -32 5
c-18 3 -69 11 -113 18 -77 12 -88 18 -415 209 -184 108 -410 241 -503 295
-106 62 -176 109 -190 129 l-22 31 -3 713 c-1 391 -1 712 2 712 2 0 271 -165
597 -366z m2124 -1050 c-3 -16 -20 -44 -38 -61 -43 -40 -1128 -673 -1154 -673
-11 0 -35 3 -52 6 l-31 7 0 682 0 683 23 6 c12 3 299 176 637 385 l615 379 3
-692 c1 -380 0 -705 -3 -722z m-1815 -810 c745 -117 991 -160 1010 -173 86
-61 92 -159 15 -231 l-27 -25 -885 -5 -885 -5 -24 -28 c-31 -36 -31 -78 0
-114 l24 -28 224 -5 223 -5 231 -177 c128 -97 251 -189 273 -204 57 -37 132
-44 193 -16 25 11 335 203 689 428 354 224 729 461 834 527 104 66 203 125
221 130 68 21 144 -53 130 -127 -3 -18 -21 -46 -39 -63 -51 -48 -1904 -1453
-1953 -1480 -89 -50 -114 -46 -459 65 -170 55 -578 187 -905 293 l-595 192
-375 9 c-206 5 -385 11 -397 14 -50 10 -53 35 -53 423 l0 359 25 31 26 30 347
3 c346 3 347 3 422 30 42 14 184 85 315 157 132 73 254 136 270 140 17 5 55
10 85 10 30 1 498 -69 1040 -155z m684 -623 c-24 -23 -379 -241 -391 -241 -13
0 -333 237 -333 246 0 2 165 4 367 4 212 0 363 -4 357 -9z"/>
</g>
</svg>
